<?xml version="1.0" encoding="UTF-8"?>
<svg id="Layer_1" data-name="Layer 1" xmlns="http://www.w3.org/2000/svg" viewBox="0 0 556.75 215.95">
  <defs>
    <style>
      .cls-1 {
        fill: #1f0433;
        stroke-width: 0px;
      }
    </style>
  </defs>
  <g>
    <path class="cls-1" d="M282.15,76.36v-25.84h94.81c6.41,0,6.41,5.76,4.27,8.97l-52.96,83.06h52.96v25.84h-94.38c-6.41,0-6.41-5.77-4.27-8.97l53.17-83.06h-53.6Z"/>
    <path class="cls-1" d="M393.4,22.97c0-9.82,7.9-18.15,18.15-18.15s18.15,8.11,18.15,18.15-8.33,18.15-18.15,18.15-18.15-8.11-18.15-18.15ZM426.49,168.39h-29.89V50.52h29.89v117.87Z"/>
    <path class="cls-1" d="M526.85,57.35V7.81h29.89v100.36c0,36.3-23.7,62.14-57.87,62.14s-58.29-25.84-58.29-60,24.13-61.28,58.29-61.28c10.04,0,20.07,3.63,27.97,8.33ZM498.67,139.56c16.44,0,29.89-13.45,29.89-30.11s-13.45-29.68-29.89-29.68-29.89,13.24-29.89,29.68,13.24,30.11,29.89,30.11Z"/>
  </g>
  <path class="cls-1" d="M213.36,94.05c-1.75-4.34-4.47-8.38-8.09-11.99-3.39-3.4-7.22-6.09-11.35-7.99-4.21-1.94-8.64-2.92-13.18-2.92h-.05c-4.52,0-9.16,1.03-13.78,3.08-4.58,2.03-9.09,5.25-13.4,9.56l-5.33,5.33c-2.34,2.34-6.14,2.34-8.48,0l-12.86-12.87c-2.35-2.34-2.35-6.14,0-8.48l5.32-5.32c4.33-4.33,7.55-8.84,9.57-13.41,2.04-4.63,3.08-9.27,3.08-13.8s-.98-8.99-2.92-13.2c-1.91-4.14-4.6-7.96-7.99-11.36-3.62-3.61-7.65-6.33-11.99-8.09C117.58.84,113.1-.03,108.63,0c-4.48.03-8.94.97-13.27,2.79-4.32,1.81-8.31,4.53-11.86,8.08-3.54,3.54-6.26,7.53-8.08,11.85-1.81,4.32-2.75,8.79-2.79,13.28-.03,4.48.85,8.95,2.6,13.28,1.75,4.34,4.48,8.37,8.09,11.98l6.78,6.79c2.35,2.34,2.35,6.14,0,8.48l-13.57,13.57c-2.34,2.35-6.14,2.35-8.48,0l-6.79-6.78c-3.62-3.62-7.65-6.35-11.98-8.1-4.33-1.75-8.81-2.64-13.28-2.59-4.49.04-8.95.97-13.27,2.79-4.33,1.82-8.32,4.54-11.86,8.08-3.54,3.54-6.26,7.53-8.08,11.86C.97,99.69.03,104.15,0,108.63c-.03,4.49.84,8.96,2.59,13.28,1.76,4.34,4.48,8.37,8.09,11.98,3.4,3.4,7.22,6.09,11.36,8,8.39,3.86,17.73,3.94,27.01-.17,4.57-2.02,9.07-5.24,13.4-9.56l5.32-5.33c2.35-2.34,6.15-2.34,8.49,0l12.86,12.86c2.34,2.35,2.34,6.15,0,8.49l-5.33,5.32c-4.31,4.32-7.53,8.83-9.56,13.41-2.05,4.63-3.08,9.27-3.08,13.8s.98,8.99,2.92,13.2c1.9,4.14,4.59,7.96,7.99,11.36,3.61,3.62,7.65,6.34,11.99,8.09,4.24,1.72,8.62,2.59,13,2.59h.27c4.47-.03,8.94-.96,13.27-2.79,4.34-1.82,8.33-4.54,11.87-8.07,3.53-3.54,6.25-7.53,8.07-11.87,1.82-4.32,2.76-8.79,2.79-13.27.03-4.47-.84-8.94-2.59-13.27s-4.47-8.37-8.09-11.99l-6.79-6.78c-2.34-2.35-2.34-6.15,0-8.49l13.57-13.57c2.35-2.34,6.14-2.34,8.49,0l6.78,6.78c3.62,3.62,7.65,6.34,11.99,8.1,4.26,1.72,8.64,2.59,13.04,2.59h.24c4.47-.03,8.94-.97,13.27-2.79,4.33-1.82,8.32-4.54,11.86-8.08,3.54-3.54,6.26-7.53,8.08-11.86,1.82-4.33,2.76-8.8,2.78-13.26.04-4.49-.83-8.95-2.59-13.28ZM53.79,112.85l-5.24,5.23c-2.17,2.17-4.37,3.78-6.53,4.79-2.09.97-4.16,1.47-6.13,1.5-1.96.05-3.91-.37-5.75-1.17-1.9-.82-3.65-2.02-5.19-3.57-1.61-1.6-2.83-3.4-3.65-5.34-.82-1.94-1.23-3.88-1.23-5.78s.41-3.84,1.23-5.77c.82-1.94,2.04-3.74,3.65-5.34,1.68-1.69,3.52-2.89,5.47-3.59,1.67-.61,3.38-.91,5.07-.91.3,0,.6.01.89.03,2.01.12,4.02.66,5.98,1.59,1.99.94,3.83,2.25,5.47,3.88l5.96,5.96c2.34,2.34,2.34,6.14,0,8.49ZM92.81,30.41c.7-1.94,1.9-3.78,3.59-5.46,1.62-1.63,3.37-2.82,5.34-3.65,1.93-.82,3.87-1.23,5.78-1.23h.02c1.88,0,3.82.41,5.75,1.23,1.95.82,3.74,2.04,5.34,3.64,1.6,1.6,2.76,3.3,3.57,5.19.82,1.89,1.2,3.77,1.17,5.76-.02,1.97-.53,4.03-1.5,6.12-1,2.17-2.61,4.37-4.79,6.54l-5.23,5.23c-2.34,2.35-6.14,2.35-8.48,0l-5.97-5.96c-1.63-1.63-2.94-3.47-3.88-5.46-.93-1.95-1.46-3.96-1.59-5.98-.13-1.99.17-4,.88-5.97ZM107.44,195.88c-1.88,0-3.84-.41-5.78-1.23-1.94-.81-3.74-2.04-5.34-3.64-1.54-1.55-2.75-3.29-3.57-5.19-.8-1.85-1.19-3.79-1.16-5.76.02-1.99.51-3.99,1.5-6.13,1-2.16,2.61-4.36,4.78-6.53l5.24-5.24c2.34-2.34,6.14-2.34,8.49,0l5.97,5.97c1.63,1.64,2.94,3.47,3.88,5.47.92,1.95,1.46,3.96,1.59,5.97.12,1.99-.18,4-.88,5.97-.71,1.97-1.88,3.75-3.59,5.46-1.61,1.61-3.41,2.84-5.35,3.66-1.92.81-3.86,1.22-5.77,1.22h0ZM124.73,112.16l-13.57,13.57c-2.34,2.35-6.14,2.35-8.48,0l-13.46-13.45c-2.34-2.35-2.34-6.15,0-8.49l13.57-13.57c2.35-2.34,6.14-2.34,8.49,0l13.45,13.46c2.35,2.34,2.35,6.14,0,8.48ZM194.65,113.22c-.82,1.96-2.01,3.7-3.64,5.34-1.71,1.71-3.5,2.88-5.47,3.59-1.97.7-3.98,1-5.96.88-2.02-.13-4.03-.67-5.98-1.59-1.99-.95-3.83-2.25-5.46-3.89l-5.97-5.96c-2.34-2.35-2.34-6.15,0-8.49l5.23-5.23c2.17-2.17,4.37-3.78,6.53-4.79,2.11-.97,4.18-1.47,6.14-1.5,1.98-.02,3.87.36,5.75,1.17,1.89.82,3.64,2.02,5.19,3.57,1.55,1.55,2.83,3.4,3.65,5.34.81,1.94,1.22,3.88,1.22,5.78s-.41,3.85-1.23,5.78Z"/>
</svg>
